<?xml version="1.0" standalone="no"?>
<!DOCTYPE svg PUBLIC "-//W3C//DTD SVG 20010904//EN"
 "http://www.w3.org/TR/2001/REC-SVG-20010904/DTD/svg10.dtd">
<svg version="1.0" xmlns="http://www.w3.org/2000/svg"
 width="800.000000pt" height="800.000000pt" viewBox="0 0 800.000000 800.000000"
 preserveAspectRatio="xMidYMid meet">

<g transform="translate(0.000000,800.000000) scale(0.100000,-0.100000)"
fill="#000000" stroke="none">
<path d="M1022 6833 c-83 -41 -84 -176 -1 -219 23 -11 90 -14 363 -14 l335 0
270 -817 c148 -450 446 -1351 661 -2002 214 -652 397 -1196 406 -1209 36 -54
-32 -52 1506 -52 1393 0 1424 0 1455 20 18 10 39 30 47 43 14 20 407 1159 403
1164 -1 1 -52 -11 -112 -27 -497 -128 -998 16 -1360 391 -138 142 -279 372
-325 526 l-13 43 -1020 2 -1020 3 -44 130 c-23 71 -43 133 -43 136 0 4 48 9
106 11 l106 3 34 37 c28 31 34 45 34 80 -1 52 -17 83 -56 109 -25 16 -47 19
-171 19 l-141 0 -80 243 c-45 133 -160 483 -257 777 -98 294 -183 547 -191
561 -29 57 -45 59 -471 59 -338 0 -392 -3 -421 -17z"/>
<path d="M5904 6139 c-468 -44 -858 -404 -939 -866 -32 -183 -11 -401 55 -572
130 -335 444 -595 795 -656 481 -84 941 156 1150 598 74 157 90 233 90 442 0
155 -3 191 -22 260 -142 516 -607 843 -1129 794z m629 -942 c83 -54 81 -179
-4 -223 -44 -22 -1007 -21 -1050 2 -45 23 -73 91 -60 142 12 41 41 75 81 91
16 6 202 9 515 8 450 -2 493 -3 518 -20z"/>
<path d="M3155 5177 c-64 -64 -51 -161 25 -199 47 -24 341 -26 395 -4 82 35
99 141 31 203 l-36 33 -191 0 -191 0 -33 -33z"/>
<path d="M4000 5197 c-34 -17 -70 -74 -70 -111 0 -17 9 -46 20 -64 36 -58 58
-62 368 -62 l278 0 0 125 0 125 -285 0 c-209 0 -293 -4 -311 -13z"/>
<path d="M3340 2155 c-236 -53 -400 -257 -400 -494 0 -141 48 -258 145 -356
202 -204 518 -204 720 0 262 264 154 718 -197 834 -85 28 -187 34 -268 16z"/>
<path d="M5300 2160 c-172 -30 -330 -158 -391 -318 -33 -87 -38 -239 -11 -329
73 -239 310 -390 556 -355 250 36 436 250 436 502 0 310 -286 553 -590 500z"/>
</g>
</svg>
